Source-HROTd_VROTx_SLENx_SANGn.ufo
<glyph name="parenright" format="2">
  <advance width="462"/>
  <unicode hex="0029"/>
  <outline>
    <contour>
      <point x="400" y="270" type="curve" name="XGBHGHRA"/>
      <point x="400" y="489" name="FKWHARGP"/>
      <point x="72" y="507" name="SBBAMCWR"/>
      <point x="-199" y="481" type="curve" name="PNUWLXYH"/>
      <point x="-159" y="474" name="MMWQNHNC"/>
      <point x="-126" y="462" name="KMXNECFG"/>
      <point x="-98" y="446" type="curve" name="QRJBJARE"/>
      <point x="88" y="455" name="BEPLNOWT"/>
      <point x="252" y="438" name="UFJLWYKL"/>
      <point x="252" y="284" type="curve" smooth="yes" name="JKEQPEMW"/>
      <point x="252" y="131" name="WHPUHNIX"/>
      <point x="88" y="14" name="KLBSQHPH"/>
      <point x="-98" y="-43" type="curve" name="DDJSHQXZ"/>
      <point x="-126" y="-98" name="IZPYNESK"/>
      <point x="-159" y="-157" name="RFIMKJKD"/>
      <point x="-199" y="-221" type="curve" name="HZRNNSOF"/>
      <point x="72" y="-159" name="JVZATBAF"/>
      <point x="400" y="52" name="KSKPBKAF"/>
      <point x="400" y="270" type="curve" name="QIZHBXAU"/>
      <point x="400" y="270" name="LQGVBOEM"/>
      <point x="400" y="270" name="PFOXVISJ"/>
    </contour>
  </outline>
</glyph>
<glyph name="hyphen" format="2">
  <advance width="340"/>
  <unicode hex="002D"/>
  <outline>
    <contour>
      <point x="-107" y="139" type="curve" name="RJKLKBOU"/>
      <point x="0" y="151" name="GEJSGJFC"/>
      <point x="92" y="151" name="CNZQCZFB"/>
      <point x="163" y="139" type="curve" name="KMBXQUUN"/>
      <point x="204" y="204" name="ZFINUYXN"/>
      <point x="204" y="241" name="BHINOBMH"/>
      <point x="163" y="248" type="curve" name="ZGEUODWB"/>
      <point x="92" y="261" name="ZZRWRQKW"/>
      <point x="0" y="261" name="LBIIDTUI"/>
      <point x="-107" y="248" type="curve" name="OOMSGMPF"/>
      <point x="-66" y="241" name="KRCXXAGZ"/>
      <point x="-66" y="204" name="YVRQAGHL"/>
    </contour>
  </outline>
</glyph>
<glyph name="slash" format="2">
  <advance width="490"/>
  <unicode hex="002F"/>
  <outline>
    <contour>
      <point x="-219" y="-196" type="curve" name="UBVWNORH"/>
      <point x="-155" y="-189" name="BKYDZCYI"/>
      <point x="-90" y="-183" name="HFAPIQPZ"/>
      <point x="-33" y="-181" type="curve" name="NRGVJFRE"/>
      <point x="317" y="214" name="VVCKEXCW"/>
      <point x="412" y="432" name="THTHWGUE"/>
      <point x="246" y="462" type="curve" name="CSULRHDR"/>
      <point x="202" y="469" name="LIDXXZCL"/>
      <point x="153" y="475" name="UWAXRRTF"/>
      <point x="102" y="477" type="curve" name="ZJUKMOXV"/>
      <point x="254" y="437" name="DHDRNXEW"/>
      <point x="145" y="209" name="QOEWJFQM"/>
    </contour>
  </outline>
</glyph>
<glyph name="zero" format="2">
  <advance width="646"/>
  <unicode hex="0030"/>
  <outline>
    <contour>
      <point x="148" y="-58" type="curve" name="JCLLKVNE"/>
      <point x="324" y="-58" name="YLBIUNVB"/>
      <point x="558" y="128" name="QXXUKDQE"/>
      <point x="557" y="272" type="curve" smooth="yes" name="ADLBBRLG"/>
      <point x="557" y="415" name="KPHUAMZG"/>
      <point x="324" y="443" name="LKYYWCMB"/>
      <point x="148" y="443" type="curve" smooth="yes" name="AJKWJNAX"/>
      <point x="-29" y="443" name="WIVXJFYO"/>
      <point x="-39" y="415" name="AXRWYRFM"/>
      <point x="-39" y="272" type="curve" smooth="yes" name="VNJZYOHT"/>
      <point x="-38" y="128" name="ZABEZIXE"/>
      <point x="-29" y="-58" name="LZTXSQOY"/>
      <point x="148" y="-58" type="curve" name="LKTHCLSV"/>
      <point x="148" y="-58" name="MYLUDVBO"/>
      <point x="148" y="-58" name="DPJDCWKL"/>
    </contour>
    <contour>
      <point x="249" y="130" type="curve" name="RGSRAABT"/>
      <point x="170" y="130" name="RTZPKZBT"/>
      <point x="159" y="208" name="NUCPQFCF"/>
      <point x="159" y="289" type="curve" smooth="yes" name="VKGVJYUO"/>
      <point x="159" y="371" name="YERMFHMG"/>
      <point x="170" y="397" name="SONLDSIA"/>
      <point x="249" y="397" type="curve" smooth="yes" name="LCKSUWPX"/>
      <point x="328" y="397" name="FSQSCHNX"/>
      <point x="409" y="370" name="RCASAPNO"/>
      <point x="409" y="289" type="curve" smooth="yes" name="DNAHTOYF"/>
      <point x="409" y="208" name="BFCJIWWA"/>
      <point x="328" y="130" name="TYILSCMF"/>
      <point x="249" y="130" type="curve" name="KDREFVAJ"/>
      <point x="249" y="130" name="OGEKAJOG"/>
      <point x="249" y="130" name="ZYNHSPFN"/>
    </contour>
  </outline>
</glyph>
<glyph name="two" format="2">
  <advance width="536"/>
  <unicode hex="0032"/>
  <outline>
    <contour>
      <point x="-153" y="-66" type="curve" name="LJXWGCYZ"/>
      <point x="25" y="-44" name="BFZHPHEN"/>
      <point x="176" y="-44" name="CIIQOLWV"/>
      <point x="295" y="-65" type="curve" name="JNHJNANE"/>
      <point x="337" y="1" name="EORDFBWZ"/>
      <point x="370" y="64" name="PMZSLJKR"/>
      <point x="393" y="117" type="curve" name="VIYXGIPN"/>
      <point x="335" y="127" name="VPUJAZNG"/>
      <point x="269" y="132" name="INHUBWSN"/>
      <point x="197" y="132" type="curve" name="RJECDWNB"/>
      <point x="238" y="160" name="HMMYEGCC"/>
      <point x="277" y="187" name="FRZHWJZL"/>
      <point x="310" y="210" type="curve" smooth="yes" name="HFLLYGKD"/>
      <point x="414" y="282" name="WKSUBPRE"/>
      <point x="441" y="317" name="TWEIKYID"/>
      <point x="416" y="358" type="curve" smooth="yes" name="YVROEAGF"/>
      <point x="364" y="437" name="TYHORWDK"/>
      <point x="136" y="472" name="JETTKUKB"/>
      <point x="-117" y="419" type="curve" name="AMXUJAYH"/>
      <point x="-77" y="408" name="CMEBPMHF"/>
      <point x="-47" y="389" name="ZMASZPDT"/>
      <point x="-29" y="363" type="curve" name="QCMTFYZZ"/>
      <point x="114" y="407" name="BJNTZEWZ"/>
      <point x="243" y="399" name="EYXNRRJE"/>
      <point x="262" y="366" type="curve" smooth="yes" name="XTOEYCRB"/>
      <point x="272" y="349" name="PATLZDXU"/>
      <point x="267" y="339" name="IFULDRXK"/>
      <point x="164" y="267" type="curve" smooth="yes" name="XWIMOQOP"/>
      <point x="104" y="226" name="WNBAELGR"/>
      <point x="31" y="175" name="DUCZENMW"/>
      <point x="-55" y="116" type="curve" name="IRYPTTWI"/>
      <point x="-78" y="63" name="JMUATNXN"/>
      <point x="-111" y="1" name="MHIRIFWU"/>
    </contour>
  </outline>
</glyph>
<glyph name="seven" format="2">
  <advance width="520"/>
  <unicode hex="0037"/>
  <outline>
    <contour>
      <point x="288" y="416" type="curve" name="AYSCDFFV"/>
      <point x="168" y="437" name="CYDQYXOY"/>
      <point x="14" y="437" name="WYXYCGGZ"/>
      <point x="-166" y="416" type="curve" name="GNXMGGMT"/>
      <point x="-125" y="408" name="IXUCVSQK"/>
      <point x="-91" y="393" name="DBJQXAZH"/>
      <point x="-69" y="372" type="curve" name="JGKGAFDS"/>
      <point x="39" y="385" name="YEPHFQXA"/>
      <point x="141" y="390" name="ESCZRMLQ"/>
      <point x="227" y="388" type="curve" name="MZOOHEXL"/>
      <point x="228" y="320" name="BDJCGOZB"/>
      <point x="112" y="168" name="DLVAHMPP"/>
      <point x="-113" y="-59" type="curve" name="CERNDSQQ"/>
      <point x="-45" y="-53" name="JBFLPXPB"/>
      <point x="22" y="-49" name="NABVUJSR"/>
      <point x="81" y="-49" type="curve" name="SIWDVRMP"/>
      <point x="295" y="170" name="GLBPXDVB"/>
      <point x="397" y="313" name="OLVHWJBV"/>
      <point x="385" y="372" type="curve" name="YRUIXLGB"/>
      <point x="363" y="393" name="BMWHWLBK"/>
      <point x="329" y="408" name="MAHHBMKY"/>
    </contour>
  </outline>
</glyph>
<glyph name="nine" format="2">
  <advance width="563"/>
  <unicode hex="0039"/>
  <outline>
    <contour>
      <point x="-12" y="152" type="curve" name="KNTYXKDF"/>
      <point x="-32" y="98" name="SDTFQBIH"/>
      <point x="-66" y="32" name="EUUTGHZT"/>
      <point x="-108" y="-38" type="curve" name="VPLBPZZQ"/>
      <point x="158" y="-98" name="NAXBTFNC"/>
      <point x="487" y="90" name="KMVXKAVW"/>
      <point x="475" y="288" type="curve" smooth="yes" name="SJRKJRBX"/>
      <point x="466" y="436" name="GPUPAYIW"/>
      <point x="252" y="442" name="DXZNZPYS"/>
      <point x="96" y="441" type="curve" smooth="yes" name="EKFYQRPH"/>
      <point x="-58" y="441" name="YLVWTBKJ"/>
      <point x="-90" y="415" name="ARBXDBSO"/>
      <point x="-57" y="340" type="curve" smooth="yes" name="UPVNOYHG"/>
      <point x="-5" y="223" name="YOBFIAST"/>
      <point x="191" y="164" name="IMCSKHBY"/>
      <point x="318" y="236" type="curve" name="QOHOCOSG"/>
      <point x="289" y="139" name="QOEDONEH"/>
      <point x="127" y="108" name="JRPKWXSD"/>
      <point x="-12" y="152" type="curve" name="HMHZWJFL"/>
      <point x="-12" y="152" name="XWEYKGGE"/>
      <point x="-12" y="152" name="MYLGLHHI"/>
    </contour>
    <contour>
      <point x="195" y="400" type="curve" name="QVHTSORV"/>
      <point x="243" y="400" name="XJLXOELD"/>
      <point x="291" y="385" name="HOGXGMNK"/>
      <point x="303" y="356" type="curve" smooth="yes" name="CFSCESZC"/>
      <point x="315" y="330" name="RLJJZSHJ"/>
      <point x="285" y="309" name="HUUPMIMH"/>
      <point x="237" y="309" type="curve" smooth="yes" name="LBRUTRTA"/>
      <point x="187" y="308" name="PPJMRLKE"/>
      <point x="151" y="331" name="ZFQSNEYB"/>
      <point x="138" y="358" type="curve" smooth="yes" name="IYAJMSNA"/>
      <point x="126" y="385" name="OPLGAUAW"/>
      <point x="146" y="400" name="QDPBDEJP"/>
      <point x="195" y="400" type="curve" name="JNZYIDLT"/>
      <point x="195" y="400" name="AAEWANST"/>
      <point x="195" y="400" name="TBROMEOP"/>
    </contour>
  </outline>
</glyph>
<glyph name="greater" format="2">
  <advance width="447"/>
  <unicode hex="003E"/>
  <outline>
    <contour>
      <point x="317" y="169" type="curve" name="MONCNYCN"/>
      <point x="332" y="220" name="SQTLPCJP"/>
      <point x="332" y="261" name="KPBUAXES"/>
      <point x="317" y="291" type="curve" name="NSHDCUYG"/>
      <point x="208" y="337" name="TMLZEOMQ"/>
      <point x="56" y="355" name="AGCTZWZW"/>
      <point x="-130" y="347" type="curve" name="XVBQCQMH"/>
      <point x="-85" y="338" name="VRMTCLJY"/>
      <point x="-53" y="319" name="QGGTVRDY"/>
      <point x="-39" y="289" type="curve" name="FVNKOWKD"/>
      <point x="39" y="283" name="UVIJQARM"/>
      <point x="110" y="270" name="JEAKONYD"/>
      <point x="170" y="252" type="curve" name="SQYLQPXE"/>
      <point x="110" y="233" name="EOWPTHYF"/>
      <point x="41" y="208" name="XORTWBRB"/>
      <point x="-38" y="175" type="curve" name="FXCNOEWT"/>
      <point x="-53" y="124" name="HLQIPPKI"/>
      <point x="-84" y="59" name="LQPYQHNL"/>
      <point x="-130" y="-14" type="curve" name="DPYBQBVA"/>
      <point x="56" y="74" name="NQVDSVXL"/>
      <point x="208" y="136" name="KKPXQWEG"/>
    </contour>
  </outline>
</glyph>
<glyph name="G" format="2">
  <advance width="673"/>
  <unicode hex="0047"/>
  <outline>
    <contour>
      <point x="443" y="-18" type="curve" name="XVTFWKEY"/>
      <point x="528" y="129" name="TPBXTBOG"/>
      <point x="561" y="242" name="YDFHFORM"/>
      <point x="541" y="315" type="curve" name="VZZWOITU"/>
      <point x="468" y="328" name="DTSPYNVL"/>
      <point x="383" y="335" name="NMGZCXKX"/>
      <point x="291" y="335" type="curve" name="TIOHRQWZ"/>
      <point x="299" y="306" name="YUDIQCGP"/>
      <point x="298" y="269" name="CKERWEID"/>
      <point x="290" y="229" type="curve" name="NXBHVIXA"/>
      <point x="326" y="228" name="OWDQGLVF"/>
      <point x="363" y="228" name="ISXXBHOA"/>
      <point x="396" y="225" type="curve" name="UVDSWROQ"/>
      <point x="390" y="196" name="LPJKRSBH"/>
      <point x="380" y="163" name="AFETXZKH"/>
      <point x="364" y="127" type="curve" name="TXHNJPMO"/>
      <point x="342" y="124" name="HNURESUQ"/>
      <point x="320" y="123" name="RZTFCVDW"/>
      <point x="298" y="123" type="curve" smooth="yes" name="KHYAIGYZ"/>
      <point x="201" y="126" name="PULJWXJR"/>
      <point x="167" y="209" name="DZHGDUKP"/>
      <point x="167" y="289" type="curve" smooth="yes" name="QQKEXZSU"/>
      <point x="166" y="410" name="PSCZXWBX"/>
      <point x="298" y="431" name="NTVRZAGI"/>
      <point x="508" y="361" type="curve" name="OBUAKABI"/>
      <point x="488" y="387" name="XYQYRGWZ"/>
      <point x="458" y="406" name="MWWQCODZ"/>
      <point x="417" y="417" type="curve" name="RNEYDFSI"/>
      <point x="56" y="484" name="OYVUEAQI"/>
      <point x="-33" y="450" name="WFJYZUOD"/>
      <point x="-36" y="267" type="curve" smooth="yes" name="LVSALXGT"/>
      <point x="-39" y="80" name="TPXXYBWX"/>
      <point x="68" y="-137" name="WPROZDPP"/>
      <point x="443" y="-18" type="curve" name="LEANBZHL"/>
      <point x="443" y="-18" name="KCDQFSWJ"/>
      <point x="443" y="-18" name="GVEKNTVK"/>
    </contour>
  </outline>
</glyph>
<glyph name="M" format="2">
  <advance width="858"/>
  <unicode hex="004D"/>
  <outline>
    <contour>
      <point x="-141" y="-70" type="curve" name="BOOKXVDR"/>
      <point x="-76" y="-62" name="RINSULMV"/>
      <point x="-11" y="-57" name="ADGNOOMA"/>
      <point x="49" y="-52" type="curve" name="DRTIQELQ"/>
      <point x="169" y="138" name="PXEQXJAJ"/>
      <point x="210" y="277" name="XSJSXXBL"/>
      <point x="170" y="354" type="curve" name="XQLDROSR"/>
      <point x="255" y="280" name="LORAMROV"/>
      <point x="256" y="143" name="SULWVXUF"/>
      <point x="178" y="-46" type="curve" name="HZYZBQSF"/>
      <point x="231" y="-44" name="BVBAZBJN"/>
      <point x="283" y="-44" name="YXUABXOK"/>
      <point x="331" y="-45" type="curve" name="UANSCUBU"/>
      <point x="491" y="147" name="QZTDNYDK"/>
      <point x="570" y="284" name="UBNINCKR"/>
      <point x="562" y="358" type="curve" name="NAUVEOPK"/>
      <point x="605" y="281" name="IWVKMRHV"/>
      <point x="565" y="141" name="MGATCVKS"/>
      <point x="444" y="-52" type="curve" name="YKCOTFEZ"/>
      <point x="494" y="-56" name="HYVKMVGT"/>
      <point x="542" y="-62" name="DQQKNBAE"/>
      <point x="587" y="-70" type="curve" name="FMXZLKFI"/>
      <point x="765" y="215" name="HBNILHZX"/>
      <point x="764" y="380" name="EXOJRZCR"/>
      <point x="584" y="412" type="curve" name="WWMKRYCJ"/>
      <point x="518" y="423" name="CLWJRKMA"/>
      <point x="446" y="431" name="QZFEISOS"/>
      <point x="369" y="434" type="curve" name="ZGMDLYSD"/>
      <point x="443" y="417" name="YFBNUIPQ"/>
      <point x="449" y="349" name="BSKUSTUT"/>
      <point x="389" y="236" type="curve" name="NNQQHHBW"/>
      <point x="374" y="349" name="KIHEDVKN"/>
      <point x="291" y="417" name="DNDPUFNZ"/>
      <point x="142" y="434" type="curve" name="CSHWKAPP"/>
      <point x="53" y="430" name="NLSXNRYI"/>
      <point x="-42" y="422" name="TQMATFNJ"/>
      <point x="-141" y="411" type="curve" name="VUPKEFGF"/>
      <point x="38" y="379" name="QQRXJJNX"/>
      <point x="38" y="215" name="EVBPWRWT"/>
    </contour>
  </outline>
</glyph>
<glyph name="W" format="2">
  <advance width="891"/>
  <unicode hex="0057"/>
  <outline>
    <contour>
      <point x="6" y="428" type="curve" name="JZIPMFPL"/>
      <point x="-58" y="423" name="LXOUSQKI"/>
      <point x="-126" y="417" name="UHJFPXNA"/>
      <point x="-195" y="408" type="curve" name="XYSMZJFN"/>
      <point x="43" y="383" name="VRVFQFLO"/>
      <point x="102" y="226" name="KFEGVQDC"/>
      <point x="-22" y="-55" type="curve" name="QDLROVPI"/>
      <point x="52" y="-49" name="MDPBAABO"/>
      <point x="124" y="-45" name="DVMIGCKL"/>
      <point x="192" y="-43" type="curve" name="RERULRAW"/>
      <point x="319" y="115" name="EYSGUEXM"/>
      <point x="393" y="238" name="PJRZXOBP"/>
      <point x="410" y="318" type="curve" name="DPNBGPZR"/>
      <point x="448" y="238" name="DLUEAVNN"/>
      <point x="432" y="115" name="EFRVLNEV"/>
      <point x="360" y="-43" type="curve" name="IVHBDKFB"/>
      <point x="423" y="-45" name="UGZKZJXS"/>
      <point x="486" y="-49" name="DOGGYCGF"/>
      <point x="543" y="-55" type="curve" name="QZGTMRND"/>
      <point x="765" y="226" name="UXEKBYLA"/>
      <point x="806" y="383" name="JZDWXTGN"/>
      <point x="666" y="408" type="curve" name="TIEBMRCE"/>
      <point x="624" y="416" name="MRQKBSRD"/>
      <point x="578" y="422" name="VZQKVBBI"/>
      <point x="532" y="427" type="curve" name="XKTMXZUN"/>
      <point x="616" y="410" name="XZHSMBEM"/>
      <point x="633" y="344" name="LRUPFWGG"/>
      <point x="580" y="230" type="curve" name="JZAXPNKW"/>
      <point x="575" y="347" name="QLPYFGSF"/>
      <point x="502" y="417" name="GSMTXMUF"/>
      <point x="361" y="438" type="curve" name="HMHTRSKZ"/>
      <point x="311" y="439" name="WXBVJKDQ"/>
      <point x="257" y="439" name="FEJTQSYY"/>
      <point x="203" y="438" type="curve" name="HQZQEYAN"/>
      <point x="283" y="418" name="UJJQWMJL"/>
      <point x="293" y="347" name="KWDDUWKX"/>
      <point x="235" y="229" type="curve" name="EDYKDMFX"/>
      <point x="228" y="343" name="KRYLDFEP"/>
      <point x="150" y="411" name="OYJHURZE"/>
    </contour>
  </outline>
</glyph>
<glyph name="bracketright" format="2">
  <advance width="445"/>
  <unicode hex="005D"/>
  <outline>
    <contour>
      <point x="149" y="-194" type="curve" name="JMUWIEGD"/>
      <point x="395" y="197" name="WDLRGKEJ"/>
      <point x="395" y="421" name="JEVUUCHX"/>
      <point x="149" y="464" type="curve" name="GMFWXPPH"/>
      <point x="62" y="479" name="KWMZKOMV"/>
      <point x="-50" y="479" name="CZVPXVLQ"/>
      <point x="-181" y="464" type="curve" name="TMKWOZDO"/>
      <point x="-143" y="457" name="UDONOSFB"/>
      <point x="-110" y="446" name="BOQOOSUJ"/>
      <point x="-83" y="431" type="curve" name="WWARALBV"/>
      <point x="-19" y="438" name="XITPUEOJ"/>
      <point x="44" y="442" name="TGXCVJET"/>
      <point x="98" y="442" type="curve" name="YEBYPFYW"/>
      <point x="214" y="375" name="LHEWRWYN"/>
      <point x="215" y="221" name="QCLTVUMG"/>
      <point x="98" y="-11" type="curve" name="EVCKWKQC"/>
      <point x="44" y="-11" name="HQGLUKDH"/>
      <point x="-19" y="-15" name="NRMJUJQX"/>
      <point x="-83" y="-22" type="curve" name="FVGFBFHV"/>
      <point x="-110" y="-75" name="IVTXCWBS"/>
      <point x="-143" y="-133" name="ZYKUJFCS"/>
      <point x="-181" y="-194" type="curve" name="RWLAXYAQ"/>
      <point x="-50" y="-178" name="QEAGAYTE"/>
      <point x="62" y="-178" name="YBZLRMAW"/>
    </contour>
  </outline>
</glyph>
<glyph name="e" format="2">
  <advance width="563"/>
  <unicode hex="0065"/>
  <anchor x="0" y="527" name="top"/>
  <anchor x="292" y="517" name="center"/>
  <outline>
    <contour>
      <point x="348" y="-15" type="curve" name="WXICIDNB"/>
      <point x="380" y="41" name="BCLKIMJG"/>
      <point x="403" y="91" name="JCLZWRAB"/>
      <point x="416" y="134" type="curve" name="HOJFQFTZ"/>
      <point x="285" y="103" name="NHPZMMVH"/>
      <point x="165" y="111" name="KSHHUQBF"/>
      <point x="139" y="173" type="curve" name="CMEFVMPR"/>
      <point x="255" y="178" name="KUMCYBZQ"/>
      <point x="359" y="173" name="KMRBBOWY"/>
      <point x="447" y="158" type="curve" name="HGFWWJRO"/>
      <point x="509" y="308" name="FBBPDPFQ"/>
      <point x="303" y="337" name="RZKXRGSL"/>
      <point x="132" y="338" type="curve" smooth="yes" name="VPQYWHDU"/>
      <point x="-21" y="339" name="GXPJHYNM"/>
      <point x="-51" y="314" name="EUYLMSOR"/>
      <point x="-51" y="204" type="curve" smooth="yes" name="VQQSUTLZ"/>
      <point x="-51" y="35" name="WIODBZYU"/>
      <point x="90" y="-104" name="YCFFYAGN"/>
      <point x="348" y="-15" type="curve" name="JHBGRMMR"/>
      <point x="348" y="-15" name="PNQPBLSD"/>
      <point x="348" y="-15" name="QLIUZSAP"/>
    </contour>
    <contour>
      <point x="215" y="295" type="curve" name="ZJQCCAFU"/>
      <point x="255" y="294" name="BVFGEYSU"/>
      <point x="296" y="286" name="DNMENWDN"/>
      <point x="318" y="258" type="curve" name="LKMPQPDQ"/>
      <point x="263" y="262" name="HVYFPOMF"/>
      <point x="202" y="262" name="CVRGQQIT"/>
      <point x="139" y="260" type="curve" name="BXYFRVWD"/>
      <point x="149" y="286" name="SHZQODYG"/>
      <point x="176" y="295" name="FHUHALNP"/>
      <point x="215" y="295" type="curve" name="SZAJLAMG"/>
      <point x="215" y="295" name="UVNIVKJZ"/>
      <point x="215" y="295" name="CZXPGABP"/>
    </contour>
  </outline>
</glyph>
<glyph name="f" format="2">
  <advance width="428"/>
  <unicode hex="0066"/>
  <outline>
    <contour>
      <point x="-27" y="298" type="curve" name="UOTRHDWQ"/>
      <point x="5" y="301" name="GWFKTQVX"/>
      <point x="36" y="304" name="WHQIWZHS"/>
      <point x="66" y="306" type="curve" name="SXQCYSGO"/>
      <point x="66" y="220" name="AMCEBCQT"/>
      <point x="15" y="96" name="IKTUTIIE"/>
      <point x="-82" y="-59" type="curve" name="TXJBOCDK"/>
      <point x="-22" y="-55" name="VSOEASTU"/>
      <point x="37" y="-54" name="EMKNEKYH"/>
      <point x="88" y="-56" type="curve" name="EMFIZJMS"/>
      <point x="186" y="100" name="ACTKEGQS"/>
      <point x="236" y="223" name="VLNXWXRD"/>
      <point x="237" y="310" type="curve" name="GBIMKFME"/>
      <point x="276" y="309" name="CKWQMQEZ"/>
      <point x="313" y="306" name="KJAHJLFY"/>
      <point x="346" y="300" type="curve" name="LBBIFENU"/>
      <point x="346" y="335" name="VUXGEMRL"/>
      <point x="339" y="365" name="RPOCPBTM"/>
      <point x="324" y="389" type="curve" name="VGELWJDK"/>
      <point x="290" y="394" name="MFBENNJN"/>
      <point x="253" y="397" name="UUTHJRAG"/>
      <point x="214" y="399" type="curve" name="JOLQFQXM"/>
      <point x="213" y="402" name="NNIYCUGB"/>
      <point x="211" y="405" name="ERSKQPWG"/>
      <point x="210" y="407" type="curve" smooth="yes" name="SZNPJPWB"/>
      <point x="191" y="431" name="LRQIDHIS"/>
      <point x="242" y="435" name="JWAERIVP"/>
      <point x="318" y="413" type="curve" name="WRRQRCFW"/>
      <point x="296" y="433" name="AJYAVMSE"/>
      <point x="264" y="448" name="DMELYFAO"/>
      <point x="225" y="455" type="curve" name="XMOCLZZA"/>
      <point x="75" y="484" name="YJJCBJYA"/>
      <point x="-23" y="486" name="MRMJAWKM"/>
      <point x="38" y="403" type="curve" smooth="yes" name="VLUEYQRV"/>
      <point x="41" y="401" name="HPHWJUSZ"/>
      <point x="42" y="398" name="MAVJMMXH"/>
      <point x="44" y="395" type="curve" name="YBEQSVIM"/>
      <point x="14" y="393" name="RCJWNWDR"/>
      <point x="-17" y="390" name="NWOHTYXT"/>
      <point x="-50" y="386" type="curve" name="EAIIOZHN"/>
      <point x="-35" y="362" name="DMUHHBTB"/>
      <point x="-27" y="332" name="PJNTSDPS"/>
    </contour>
  </outline>
</glyph>
<glyph name="i" format="2">
  <advance width="281"/>
  <unicode hex="0069"/>
  <outline>
    <contour>
      <point x="69" y="432" type="curve" name="EORTHLMT"/>
      <point x="125" y="432" name="EVWNVOMG"/>
      <point x="144" y="445" name="MEVSEGWQ"/>
      <point x="112" y="462" type="curve" smooth="yes" name="CPEHEUPM"/>
      <point x="79" y="477" name="EDIZPBUH"/>
      <point x="4" y="490" name="XAYCUERG"/>
      <point x="-51" y="491" type="curve" smooth="yes" name="YXOIDRHZ"/>
      <point x="-109" y="491" name="ZZXTBODZ"/>
      <point x="-128" y="477" name="TGCQBOPY"/>
      <point x="-95" y="462" type="curve" smooth="yes" name="KFIZCLYG"/>
      <point x="-63" y="445" name="KBRCEJDG"/>
      <point x="11" y="432" name="WRPWNNGS"/>
      <point x="69" y="432" type="curve" name="WINLDFYY"/>
      <point x="69" y="432" name="FIWYGBKH"/>
      <point x="69" y="432" name="GIZVWOQL"/>
    </contour>
    <contour>
      <point x="-141" y="-65" type="curve" name="SDTEZHUF"/>
      <point x="-78" y="-59" name="YFTCVRCK"/>
      <point x="-21" y="-59" name="NIQDWMOU"/>
      <point x="24" y="-65" type="curve" name="NANFPBJG"/>
      <point x="161" y="153" name="AMUCLZXQ"/>
      <point x="208" y="310" name="CKAABMEO"/>
      <point x="163" y="399" type="curve" name="BOLSPHDY"/>
      <point x="118" y="405" name="YIPXIPTF"/>
      <point x="61" y="405" name="TTREWCBW"/>
      <point x="-2" y="399" type="curve" name="GRFAHYSX"/>
      <point x="43" y="310" name="EIRDFQMH"/>
      <point x="-4" y="153" name="LYJHVYCU"/>
    </contour>
  </outline>
</glyph>
<glyph name="q" format="2">
  <advance width="620"/>
  <unicode hex="0071"/>
  <outline>
    <contour>
      <point x="221" y="-164" type="curve" name="JZEQIUPB"/>
      <point x="270" y="-168" name="VQEFDCHK"/>
      <point x="320" y="-172" name="AIWHILTC"/>
      <point x="363" y="-180" type="curve" name="OBZGCREF"/>
      <point x="541" y="103" name="KMXUALGX"/>
      <point x="545" y="269" name="YFSQBHGK"/>
      <point x="374" y="306" type="curve" name="BWPHGHHC"/>
      <point x="331" y="314" name="QZDEQISI"/>
      <point x="282" y="320" name="DBIANBVR"/>
      <point x="232" y="322" type="curve" name="ICWOWRQC"/>
      <point x="240" y="321" name="LWWUTCLF"/>
      <point x="246" y="319" name="BRLOZBJV"/>
      <point x="253" y="317" type="curve" name="SSXBPBTI"/>
      <point x="203" y="324" name="KOOXIHUT"/>
      <point x="148" y="327" name="DOSPJELQ"/>
      <point x="100" y="327" type="curve" smooth="yes" name="YKLDYSRX"/>
      <point x="-36" y="326" name="XNBJHNTN"/>
      <point x="-71" y="304" name="STPLEOQY"/>
      <point x="-43" y="209" type="curve" smooth="yes" name="MZFXAZTL"/>
      <point x="-16" y="115" name="SZMNRRLQ"/>
      <point x="56" y="6" name="SCTJEUEJ"/>
      <point x="193" y="7" type="curve" smooth="yes" name="HQSNZCSO"/>
      <point x="241" y="7" name="MQPXIMES"/>
      <point x="290" y="23" name="NWEEENUT"/>
      <point x="331" y="48" type="curve" name="NXZSZERU"/>
      <point x="309" y="-12" name="PMUBJKQH"/>
      <point x="271" y="-84" name="IXJLCHDA"/>
    </contour>
    <contour>
      <point x="258" y="141" type="curve" name="AEJBAKCS"/>
      <point x="193" y="141" name="IOHZIGNR"/>
      <point x="157" y="180" name="TKDWKZNL"/>
      <point x="145" y="226" type="curve" smooth="yes" name="OBYQCXGA"/>
      <point x="132" y="271" name="UGJVGCZF"/>
      <point x="150" y="289" name="HYCIMANU"/>
      <point x="215" y="289" type="curve" smooth="yes" name="NYQFDWUB"/>
      <point x="279" y="289" name="MMOEYOVB"/>
      <point x="344" y="270" name="VTACPUFO"/>
      <point x="356" y="225" type="curve" smooth="yes" name="VFIURVLK"/>
      <point x="369" y="180" name="DFJSWXQM"/>
      <point x="322" y="141" name="YAGAMMRH"/>
      <point x="258" y="141" type="curve" name="CPISHRSV"/>
      <point x="258" y="141" name="JIMPXSEK"/>
      <point x="258" y="141" name="DFQDHCBP"/>
    </contour>
  </outline>
</glyph>
<glyph name="v" format="2">
  <advance width="540"/>
  <unicode hex="0076"/>
  <outline>
    <contour>
      <point x="12" y="-39" type="curve" name="CETQLMRB"/>
      <point x="80" y="-35" name="OALJVTRG"/>
      <point x="146" y="-35" name="GXPJTXCW"/>
      <point x="204" y="-39" type="curve" name="EGUURNPT"/>
      <point x="396" y="176" name="RPAANMYB"/>
      <point x="449" y="294" name="CWZGDTWK"/>
      <point x="359" y="310" type="curve" name="DPNIFOCN"/>
      <point x="314" y="318" name="PZEUUZQH"/>
      <point x="264" y="323" name="ZXDZIRBM"/>
      <point x="213" y="327" type="curve" name="IVKSSRBH"/>
      <point x="265" y="313" name="YWSLHPDJ"/>
      <point x="264" y="262" name="ARKSXQZZ"/>
      <point x="212" y="175" type="curve" name="HPICQEGE"/>
      <point x="197" y="262" name="HXXUYPYV"/>
      <point x="126" y="313" name="ILSGCJVN"/>
      <point x="6" y="327" type="curve" name="SITDMBLD"/>
      <point x="-55" y="324" name="ASAJEXVH"/>
      <point x="-122" y="318" name="NDFBLJOE"/>
      <point x="-191" y="310" type="curve" name="VHDXMILN"/>
      <point x="17" y="294" name="SAOFCSKK"/>
      <point x="86" y="176" name="QIZEBTCD"/>
    </contour>
  </outline>
</glyph>
<glyph name="w" format="2">
  <advance width="774"/>
  <unicode hex="0077"/>
  <outline>
    <contour>
      <point x="-6" y="-42" type="curve" name="TYADESJX"/>
      <point x="53" y="-37" name="PLWMYIKM"/>
      <point x="113" y="-35" name="XPRVLDLZ"/>
      <point x="168" y="-33" type="curve" name="AKQFWWHN"/>
      <point x="255" y="71" name="LSXUVIKR"/>
      <point x="314" y="157" name="CSKWDKIK"/>
      <point x="337" y="216" type="curve" name="QPMSIVSV"/>
      <point x="356" y="157" name="WYBDCZJW"/>
      <point x="343" y="71" name="CDUQXLDH"/>
      <point x="298" y="-33" type="curve" name="VQMOQUZK"/>
      <point x="349" y="-35" name="IJPTLRRN"/>
      <point x="401" y="-37" name="NZGTOKHI"/>
      <point x="448" y="-42" type="curve" name="FDSWUESH"/>
      <point x="630" y="171" name="WXXXCXXB"/>
      <point x="675" y="289" name="FPWPOWTX"/>
      <point x="580" y="306" type="curve" name="HPBEFSOG"/>
      <point x="537" y="314" name="PPEEMWQZ"/>
      <point x="489" y="320" name="MRFQVFLY"/>
      <point x="442" y="325" type="curve" name="GSWYCEUZ"/>
      <point x="494" y="313" name="LWBVZNKP"/>
      <point x="504" y="271" name="PYPIDUSI"/>
      <point x="471" y="199" type="curve" name="YSNHQWQV"/>
      <point x="459" y="273" name="CCBEOJRY"/>
      <point x="401" y="318" name="AGAQKAFE"/>
      <point x="305" y="332" type="curve" name="NOIYVNSJ"/>
      <point x="260" y="334" name="PQBZMNTS"/>
      <point x="213" y="334" name="WFQONGVT"/>
      <point x="164" y="332" type="curve" name="IVYKHCCN"/>
      <point x="216" y="319" name="DESCLUKH"/>
      <point x="225" y="274" name="YAQKDKKY"/>
      <point x="195" y="202" type="curve" name="WHIXWSZD"/>
      <point x="174" y="272" name="XOWANWZL"/>
      <point x="108" y="313" name="XNAPJWDF"/>
      <point x="5" y="325" type="curve" name="TRQBXZNO"/>
      <point x="-56" y="320" name="ZDSSPGWN"/>
      <point x="-122" y="314" name="LGHKMMZA"/>
      <point x="-188" y="306" type="curve" name="MQSXSAOY"/>
      <point x="11" y="289" name="WWCFXYQX"/>
      <point x="72" y="171" name="EDUKVOXF"/>
    </contour>
  </outline>
</glyph>
<glyph name="y" format="2">
  <advance width="540"/>
  <unicode hex="0079"/>
  <outline>
    <contour>
      <point x="-81" y="-168" type="curve" name="AYGSPRJM"/>
      <point x="-17" y="-163" name="CWIALNYX"/>
      <point x="45" y="-160" name="IQFJVXEO"/>
      <point x="102" y="-160" type="curve" name="QZUTKWZI"/>
      <point x="369" y="123" name="OXIDFXBJ"/>
      <point x="450" y="279" name="AYAVWNQW"/>
      <point x="343" y="298" type="curve" name="MUYDXRDJ"/>
      <point x="298" y="307" name="HYEUEVDF"/>
      <point x="248" y="313" name="TQAYNSZN"/>
      <point x="195" y="315" type="curve" name="EAGQVVXW"/>
      <point x="234" y="305" name="ELWYHPSX"/>
      <point x="245" y="274" name="VUZNXMZT"/>
      <point x="229" y="224" type="curve" name="XFOLWOBM"/>
      <point x="178" y="274" name="ZDMLLJIH"/>
      <point x="98" y="305" name="HHVUCIJB"/>
      <point x="-8" y="315" type="curve" name="HFETTWBP"/>
      <point x="-70" y="313" name="DUPWVWRS"/>
      <point x="-137" y="307" name="RZOXPLIK"/>
      <point x="-207" y="298" type="curve" name="YKBCDZZW"/>
      <point x="-9" y="286" name="FGCPUSDC"/>
      <point x="105" y="208" name="ZUFTFOHU"/>
      <point x="126" y="70" type="curve" name="GEVXGJFZ"/>
      <point x="77" y="5" name="PVGTSOBD"/>
      <point x="5" y="-76" name="MTOBORGE"/>
    </contour>
  </outline>
</glyph>
<glyph name="z" format="2">
  <advance width="490"/>
  <unicode hex="007A"/>
  <outline>
    <contour>
      <point x="-142" y="-53" type="curve" name="ATILBVOY"/>
      <point x="20" y="-34" name="VFTVJBCO"/>
      <point x="160" y="-34" name="MEGJOQDC"/>
      <point x="268" y="-53" type="curve" name="EAFIJGVG"/>
      <point x="305" y="6" name="FPWNMFYW"/>
      <point x="333" y="60" name="UODVZHTI"/>
      <point x="350" y="105" type="curve" name="JYENNZAR"/>
      <point x="295" y="115" name="PICHKZQE"/>
      <point x="232" y="120" name="IQFUUTGN"/>
      <point x="163" y="120" type="curve" name="WNPBEUQT"/>
      <point x="260" y="195" name="ILFGKBPK"/>
      <point x="323" y="245" name="EBDEGZRG"/>
      <point x="350" y="269" type="curve" name="WDLOQFZY"/>
      <point x="333" y="291" name="FEZAVZUE"/>
      <point x="305" y="306" name="YGRHDRZI"/>
      <point x="268" y="313" type="curve" name="HBEHUFWB"/>
      <point x="160" y="332" name="TZJKBHAQ"/>
      <point x="20" y="332" name="NEPHHCEF"/>
      <point x="-142" y="313" type="curve" name="CLGFOYPN"/>
      <point x="-105" y="306" name="HJHQNWXQ"/>
      <point x="-77" y="291" name="FRBJQKPS"/>
      <point x="-60" y="269" type="curve" name="DMXUCNTG"/>
      <point x="23" y="279" name="QFKKHEBX"/>
      <point x="100" y="284" name="VMEOSIUP"/>
      <point x="169" y="284" type="curve" name="BQVHLJAR"/>
      <point x="127" y="249" name="BVSLRMYH"/>
      <point x="51" y="190" name="XCZPNAGZ"/>
      <point x="-60" y="105" type="curve" name="PCOLTODA"/>
      <point x="-77" y="60" name="PWQDHAHS"/>
      <point x="-105" y="6" name="YNLZKRZS"/>
    </contour>
  </outline>
</glyph>
<glyph name="cent" format="2">
  <advance width="475"/>
  <unicode hex="00A2"/>
  <outline>
    <contour>
      <point x="-17" y="-90" type="curve" name="BFJWSAGV"/>
      <point x="34" y="-88" name="PXVFEIKS"/>
      <point x="83" y="-88" name="AETJFETM"/>
      <point x="127" y="-91" type="curve" name="LJAQOTMB"/>
      <point x="157" y="-46" name="NSQVLCHO"/>
      <point x="185" y="-2" name="BBTKOCGQ"/>
      <point x="207" y="38" type="curve" name="RRPIREQA"/>
      <point x="239" y="37" name="RSKNSZEF"/>
      <point x="273" y="40" name="NESMJWQH"/>
      <point x="310" y="47" type="curve" name="QEOPQSPP"/>
      <point x="336" y="102" name="HAGXTGBW"/>
      <point x="354" y="151" name="YSHSYPFW"/>
      <point x="364" y="195" type="curve" name="AVDPPXQX"/>
      <point x="260" y="164" name="KNATKYTU"/>
      <point x="158" y="193" name="YSDAFLCT"/>
      <point x="158" y="271" type="curve" smooth="yes" name="MCRADCXO"/>
      <point x="158" y="349" name="WLJWBZVQ"/>
      <point x="261" y="359" name="MWRFISZJ"/>
      <point x="364" y="310" type="curve" name="FVTOPQEG"/>
      <point x="355" y="340" name="VHMFLDGK"/>
      <point x="337" y="364" name="JMYJUQFU"/>
      <point x="311" y="382" type="curve" name="BCWWWLAO"/>
      <point x="285" y="388" name="KQCYGTGZ"/>
      <point x="259" y="393" name="RASXDEZL"/>
      <point x="235" y="397" type="curve" name="NAUEXXVK"/>
      <point x="216" y="408" name="RRTDEDIC"/>
      <point x="192" y="417" name="RFUENZSR"/>
      <point x="164" y="421" type="curve" name="GROPYLFB"/>
      <point x="122" y="426" name="XQSDXIKR"/>
      <point x="76" y="428" name="GAQLJFDK"/>
      <point x="27" y="427" type="curve" name="LRGGXZUN"/>
      <point x="57" y="421" name="ECPLDKGZ"/>
      <point x="84" y="412" name="HAADOSFA"/>
      <point x="102" y="397" type="curve" name="XTVLOHKA"/>
      <point x="11" y="385" name="AMVLKNVT"/>
      <point x="-29" y="343" name="TQMPHLSA"/>
      <point x="-30" y="257" type="curve" smooth="yes" name="ZFTJIVXR"/>
      <point x="-30" y="180" name="RTKRDVRC"/>
      <point x="3" y="104" name="NJHVLYCZ"/>
      <point x="79" y="66" type="curve" name="TKJELYAU"/>
      <point x="54" y="19" name="QSNWVQSW"/>
      <point x="22" y="-34" name="MEJNLKNO"/>
    </contour>
  </outline>
</glyph>
<glyph name="sterling" format="2">
  <advance width="561"/>
  <unicode hex="00A3"/>
  <outline>
    <contour>
      <point x="-21" y="211" type="curve" name="SULDKOSJ"/>
      <point x="9" y="215" name="TZPVTQSH"/>
      <point x="40" y="219" name="RWRWYJKE"/>
      <point x="68" y="221" type="curve" name="YNDBIDRK"/>
      <point x="69" y="198" name="JNDKEPUY"/>
      <point x="67" y="177" name="XYCIXFGF"/>
      <point x="61" y="160" type="curve" smooth="yes" name="EAABCAXS"/>
      <point x="50" y="131" name="FYZJRARU"/>
      <point x="28" y="118" name="CWYBYHEG"/>
      <point x="-12" y="114" type="curve" smooth="yes" name="PPTJKFQM"/>
      <point x="-26" y="112" name="LMOBGOIU"/>
      <point x="-42" y="110" name="VDVYBSRB"/>
      <point x="-56" y="109" type="curve" name="FMAGTRKN"/>
      <point x="-78" y="58" name="BYYPDTDD"/>
      <point x="-111" y="-3" name="IXDUIBFL"/>
      <point x="-151" y="-66" type="curve" name="ZVAQFCIO"/>
      <point x="34" y="-44" name="SFCLLBYT"/>
      <point x="192" y="-44" name="YRYPTODJ"/>
      <point x="315" y="-66" type="curve" name="PPBFHAPL"/>
      <point x="355" y="-3" name="VEGLHUNT"/>
      <point x="388" y="58" name="WFOLIKDM"/>
      <point x="410" y="109" type="curve" name="YKCZOUJV"/>
      <point x="353" y="119" name="ONNYPZXY"/>
      <point x="287" y="125" name="WOWILBOH"/>
      <point x="217" y="125" type="curve" name="LMVEVUIK"/>
      <point x="228" y="140" name="HOZJAWPP"/>
      <point x="236" y="155" name="PGCCUCWH"/>
      <point x="241" y="170" type="curve" smooth="yes" name="MEZUCZQE"/>
      <point x="249" y="191" name="ATPXKOIV"/>
      <point x="252" y="210" name="CYPYDDBT"/>
      <point x="253" y="228" type="curve" name="OIDOQTCA"/>
      <point x="311" y="228" name="FYEFLKMJ"/>
      <point x="364" y="223" name="IAURHHVZ"/>
      <point x="413" y="217" type="curve" name="ODHJFRWG"/>
      <point x="421" y="255" name="QCDHHQDE"/>
      <point x="423" y="288" name="QAQMABYZ"/>
      <point x="417" y="315" type="curve" name="DGJAVQSF"/>
      <point x="361" y="323" name="WQJMFEXV"/>
      <point x="298" y="327" name="GGIYBWON"/>
      <point x="230" y="327" type="curve" name="IEPIZBPU"/>
      <point x="223" y="342" name="JRPNGCKD"/>
      <point x="216" y="353" name="SALBHOYS"/>
      <point x="211" y="362" type="curve" smooth="yes" name="KVQOJACY"/>
      <point x="189" y="405" name="WRMPQAIS"/>
      <point x="287" y="412" name="OSUYOUMX"/>
      <point x="414" y="368" type="curve" name="OSLAZHOE"/>
      <point x="395" y="393" name="HLXTQSUD"/>
      <point x="364" y="411" name="NNUAIOZS"/>
      <point x="324" y="421" type="curve" name="BHVZZVHJ"/>
      <point x="120" y="458" name="YVRIEDSF"/>
      <point x="-53" y="457" name="MEBQTGUI"/>
      <point x="11" y="367" type="curve" smooth="yes" name="GYUBTLTC"/>
      <point x="20" y="352" name="BBVIKRWI"/>
      <point x="33" y="336" name="QKUBHVAN"/>
      <point x="42" y="317" type="curve" name="BGFLHEIN"/>
      <point x="23" y="315" name="MCPPUCOA"/>
      <point x="3" y="313" name="VZGKWSRT"/>
      <point x="-16" y="310" type="curve" name="CYGMWPEW"/>
      <point x="-10" y="283" name="XXVHOLVY"/>
      <point x="-12" y="250" name="DEUMNINH"/>
    </contour>
  </outline>
</glyph>
<glyph name="registered" format="2">
  <advance width="614"/>
  <unicode hex="00AE"/>
  <outline>
    <contour>
      <point x="149" y="96" type="curve" name="ZJPAOHIL"/>
      <point x="298" y="96" name="UBYBDRLG"/>
      <point x="482" y="226" name="XCEZYLOZ"/>
      <point x="482" y="331" type="curve" smooth="yes" name="RKSISJRH"/>
      <point x="482" y="436" name="KAUYIQEA"/>
      <point x="298" y="459" name="HPCCQFUD"/>
      <point x="149" y="459" type="curve" smooth="yes" name="SSQOLBWQ"/>
      <point x="0" y="459" name="JGQKHYRT"/>
      <point x="-32" y="436" name="PIQJXNWD"/>
      <point x="-32" y="331" type="curve" smooth="yes" name="NCFUKRXD"/>
      <point x="-32" y="226" name="MSEXROUV"/>
      <point x="0" y="96" name="ZMAPPZDK"/>
      <point x="149" y="96" type="curve" name="OYPZDYJW"/>
      <point x="149" y="96" name="KTBDMFHL"/>
      <point x="149" y="96" name="YMWTAKGP"/>
    </contour>
    <contour>
      <point x="186" y="158" type="curve" name="SAGCRDPG"/>
      <point x="68" y="158" name="NNSUHSIK"/>
      <point x="33" y="255" name="NPWOOSKT"/>
      <point x="33" y="338" type="curve" smooth="yes" name="GTIARTID"/>
      <point x="33" y="421" name="RATHLJFM"/>
      <point x="68" y="448" name="BXRMCCUD"/>
      <point x="186" y="448" type="curve" smooth="yes" name="EAUGZHCF"/>
      <point x="303" y="448" name="TKGKFILF"/>
      <point x="437" y="421" name="QHJERAAI"/>
      <point x="437" y="338" type="curve" smooth="yes" name="GIHMRHSB"/>
      <point x="437" y="255" name="XOVXSAXN"/>
      <point x="303" y="158" name="XDKNCWAZ"/>
      <point x="186" y="158" type="curve" name="KHIUXGQN"/>
      <point x="186" y="158" name="GZWPPYNY"/>
      <point x="186" y="158" name="WGDMMZDP"/>
    </contour>
    <contour>
      <point x="127" y="245" type="curve" name="ZRVBVIVI"/>
      <point x="155" y="247" name="GPZWUZVM"/>
      <point x="182" y="248" name="EXEJCZRV"/>
      <point x="209" y="248" type="curve" name="HWCXLEMJ"/>
      <point x="217" y="269" name="EHFZERLS"/>
      <point x="223" y="289" name="GARANICO"/>
      <point x="226" y="306" type="curve" name="NNULKUXU"/>
      <point x="235" y="306" name="DZMYDYHX"/>
      <point x="243" y="306" name="DAJTGGXM"/>
      <point x="252" y="306" type="curve" name="JPZORZRB"/>
      <point x="252" y="306" name="OOCHPJQO"/>
      <point x="253" y="306" name="HWLXQLLE"/>
      <point x="253" y="306" type="curve" name="QARUYPVF"/>
      <point x="262" y="288" name="YDXFZBZJ"/>
      <point x="270" y="268" name="VGBJOLDK"/>
      <point x="275" y="248" type="curve" name="ZITPXKCD"/>
      <point x="303" y="247" name="PHMLERXW"/>
      <point x="331" y="245" name="LONBPHHU"/>
      <point x="357" y="243" type="curve" name="PGMSKNJI"/>
      <point x="351" y="273" name="XNIHKJMW"/>
      <point x="340" y="301" name="AHIYADYP"/>
      <point x="324" y="323" type="curve" name="MYAPFJDG"/>
      <point x="344" y="335" name="ZHHUWGKP"/>
      <point x="356" y="352" name="IDDEKBEB"/>
      <point x="353" y="371" type="curve" smooth="yes" name="LYCAJXVL"/>
      <point x="347" y="406" name="HCITNEYJ"/>
      <point x="290" y="424" name="QIWCPMHW"/>
      <point x="225" y="424" type="curve" smooth="yes" name="XTYNPMDI"/>
      <point x="193" y="424" name="XZHFLAUE"/>
      <point x="157" y="422" name="JMMCOFMU"/>
      <point x="123" y="421" type="curve" name="PZRVULHO"/>
      <point x="157" y="386" name="ZFIIYAUE"/>
      <point x="158" y="326" name="TDMCUMWB"/>
    </contour>
    <contour>
      <point x="247" y="389" type="curve" smooth="yes" name="SBZUZKOV"/>
      <point x="264" y="389" name="CUKCUXOK"/>
      <point x="278" y="383" name="XJOMVBXJ"/>
      <point x="279" y="373" type="curve" smooth="yes" name="VQFMFNEF"/>
      <point x="281" y="364" name="QTQCSZKN"/>
      <point x="271" y="356" name="TJGAQIFA"/>
      <point x="257" y="356" type="curve" smooth="yes" name="PODHIHRL"/>
      <point x="248" y="356" name="EIQOBLIG"/>
      <point x="240" y="356" name="EKGAYYZI"/>
      <point x="231" y="356" type="curve" name="GKOJMUMU"/>
      <point x="230" y="367" name="PSJFDUVV"/>
      <point x="229" y="380" name="EYUWAFJR"/>
      <point x="225" y="389" type="curve" name="SERRKTSE"/>
      <point x="233" y="390" name="PBPYLWLL"/>
      <point x="241" y="390" name="UDIYFGKK"/>
    </contour>
  </outline>
</glyph>
<glyph name="plusminus" format="2">
  <advance width="540"/>
  <unicode hex="00B1"/>
  <outline>
    <contour>
      <point x="-32" y="238" type="curve" name="HZTILNMF"/>
      <point x="28" y="245" name="MYALUGZO"/>
      <point x="86" y="250" name="PHUAONUE"/>
      <point x="139" y="252" type="curve" name="ABKWWAWM"/>
      <point x="140" y="225" name="LEEEYNOB"/>
      <point x="134" y="193" name="DQTLXQCE"/>
      <point x="122" y="157" type="curve" name="VVWJTIVA"/>
      <point x="178" y="160" name="BURGGTBB"/>
      <point x="233" y="160" name="DXXNAPJM"/>
      <point x="281" y="157" type="curve" name="TFLFAZBX"/>
      <point x="293" y="193" name="ACKKWOQF"/>
      <point x="299" y="225" name="RNABONOP"/>
      <point x="298" y="252" type="curve" name="NLRMSSLX"/>
      <point x="345" y="250" name="NOOXURJE"/>
      <point x="388" y="245" name="CTGHJYYN"/>
      <point x="428" y="238" type="curve" name="RBUCAHIE"/>
      <point x="427" y="273" name="MPCMOEXO"/>
      <point x="416" y="303" name="KPHQFNCF"/>
      <point x="394" y="323" type="curve" name="EEJVZWFL"/>
      <point x="354" y="330" name="CVHTSJMB"/>
      <point x="311" y="335" name="SNJYSJUL"/>
      <point x="264" y="337" type="curve" name="KGYFIUEN"/>
      <point x="244" y="356" name="FGWKJHXB"/>
      <point x="216" y="368" name="PNHXTLHF"/>
      <point x="180" y="376" type="curve" name="RWYXZKBX"/>
      <point x="131" y="378" name="ICNDTIJE"/>
      <point x="76" y="378" name="AUWAKIJN"/>
      <point x="21" y="376" type="curve" name="OKTOJOJO"/>
      <point x="57" y="368" name="ZTLDVXHP"/>
      <point x="85" y="356" name="RRKQSIGU"/>
      <point x="105" y="337" type="curve" name="YYLPOOHK"/>
      <point x="52" y="335" name="IVTFEOFC"/>
      <point x="-6" y="330" name="EQVGGATG"/>
      <point x="-66" y="323" type="curve" name="OBMKMHCF"/>
      <point x="-44" y="303" name="MQGQSUUD"/>
      <point x="-32" y="274" name="FYMYUOHP"/>
    </contour>
    <contour>
      <point x="-151" y="-59" type="curve" name="UJFEDHJK"/>
      <point x="32" y="-37" name="SBVMCWFH"/>
      <point x="188" y="-37" name="ORQSTYDZ"/>
      <point x="309" y="-59" type="curve" name="AAQBVFAW"/>
      <point x="350" y="6" name="QYCIQGQU"/>
      <point x="381" y="65" name="VPYXXOZR"/>
      <point x="401" y="115" type="curve" name="WYHNZAEY"/>
      <point x="280" y="137" name="MUCSZKYK"/>
      <point x="124" y="137" name="BCVZJNLD"/>
      <point x="-59" y="115" type="curve" name="VKBXOTQJ"/>
      <point x="-78" y="66" name="FKOIICMS"/>
      <point x="-110" y="6" name="WAHZQYCV"/>
    </contour>
  </outline>
</glyph>
<glyph name="threesuperior" format="2">
  <advance width="419"/>
  <unicode hex="00B3"/>
  <outline>
    <contour>
      <point x="12" y="378" type="curve" name="LEDVILVL"/>
      <point x="15" y="364" name="EOLMSIYT"/>
      <point x="15" y="346" name="ADCHJUWJ"/>
      <point x="12" y="327" type="curve" name="VKEAGCDD"/>
      <point x="148" y="344" name="EEUNXDCW"/>
      <point x="174" y="330" name="ZXRVWJYT"/>
      <point x="167" y="306" type="curve" smooth="yes" name="DSXWSKUO"/>
      <point x="159" y="279" name="BYVIJXKF"/>
      <point x="120" y="277" name="HFNVJGHY"/>
      <point x="-28" y="286" type="curve" name="AKOGIJYP"/>
      <point x="-39" y="252" name="FKOKAUAL"/>
      <point x="-59" y="211" name="QWPISSDJ"/>
      <point x="-86" y="166" type="curve" name="XIWJSCMM"/>
      <point x="64" y="137" name="RTJBWBBX"/>
      <point x="240" y="175" name="INVSWDLO"/>
      <point x="276" y="287" type="curve" smooth="yes" name="OMOAPJRM"/>
      <point x="295" y="347" name="BJYTSTAM"/>
      <point x="256" y="378" name="TMBPVHUL"/>
      <point x="189" y="389" type="curve" name="DQBSGPWM"/>
      <point x="213" y="397" name="XBBTDFYK"/>
      <point x="234" y="405" name="OTTJUTYT"/>
      <point x="252" y="409" type="curve" name="YHHBJGDI"/>
      <point x="238" y="424" name="TXNTJUEW"/>
      <point x="217" y="435" name="DVURYWAB"/>
      <point x="189" y="440" type="curve" name="HBMXTNVK"/>
      <point x="112" y="451" name="DJGWJPXU"/>
      <point x="15" y="450" name="QJPQQOND"/>
      <point x="-97" y="437" type="curve" name="CJOJQFXX"/>
      <point x="-69" y="432" name="WPPCCCZX"/>
      <point x="-47" y="421" name="XPKPXVKD"/>
      <point x="-34" y="406" type="curve" name="OTBAJBSF"/>
      <point x="14" y="412" name="UGKUMHTG"/>
      <point x="60" y="415" name="JQDQGSZH"/>
      <point x="102" y="417" type="curve" name="UHCFHCQK"/>
      <point x="76" y="407" name="IKCOODTJ"/>
      <point x="46" y="393" name="DOBAPBWA"/>
    </contour>
  </outline>
</glyph>
<glyph name="mu.math" format="2">
  <advance width="593"/>
  <unicode hex="00B5"/>
  <outline>
    <contour>
      <point x="338" y="300" type="curve" name="PLNRBHVW"/>
      <point x="295" y="308" name="RGZOKVCW"/>
      <point x="245" y="313" name="BZBEOLNS"/>
      <point x="195" y="315" type="curve" name="MNPFRXIF"/>
      <point x="272" y="302" name="IKFSIKVA"/>
      <point x="317" y="263" name="MHKYZKPT"/>
      <point x="328" y="203" type="curve" smooth="yes" name="RNCPLWDJ"/>
      <point x="334" y="167" name="LJLIRDEJ"/>
      <point x="300" y="142" name="KHOYULFA"/>
      <point x="247" y="142" type="curve" smooth="yes" name="ZPAYZYBH"/>
      <point x="194" y="142" name="QWDDXZIJ"/>
      <point x="172" y="169" name="CIPQOYRL"/>
      <point x="167" y="203" type="curve" smooth="yes" name="RFZZCEHD"/>
      <point x="156" y="263" name="DPOYICIH"/>
      <point x="111" y="302" name="AIONHRAV"/>
      <point x="34" y="315" type="curve" name="EVFKEXGZ"/>
      <point x="-24" y="313" name="YRPJYRQP"/>
      <point x="-88" y="308" name="TOFHSMRG"/>
      <point x="-153" y="300" type="curve" name="FWVFFKYT"/>
      <point x="25" y="268" name="CBDLTKVH"/>
      <point x="25" y="105" name="MJEYEYNG"/>
      <point x="-153" y="-179" type="curve" name="SLGKHBHE"/>
      <point x="-88" y="-171" name="NOOKQSXU"/>
      <point x="-24" y="-166" name="PFNUZMYF"/>
      <point x="34" y="-163" type="curve" name="NCTHWSWJ"/>
      <point x="76" y="-96" name="JHZXLADD"/>
      <point x="110" y="-33" name="XPAJDKKN"/>
      <point x="132" y="20" type="curve" name="WTAPUAAI"/>
      <point x="145" y="11" name="TWVWCRTN"/>
      <point x="164" y="6" name="RCOFAFSB"/>
      <point x="188" y="6" type="curve" smooth="yes" name="BCFSQDUR"/>
      <point x="226" y="7" name="IFXPWYLQ"/>
      <point x="265" y="18" name="MFZYWYBI"/>
      <point x="300" y="37" type="curve" name="UDFGQPGB"/>
      <point x="297" y="30" name="BLJFVVOA"/>
      <point x="295" y="25" name="ATMEBLWS"/>
      <point x="292" y="18" type="curve" name="HYCDJXMU"/>
      <point x="343" y="16" name="NMARDQIH"/>
      <point x="392" y="11" name="QVZZQRKX"/>
      <point x="435" y="3" type="curve" name="XQXTRXNF"/>
      <point x="507" y="175" name="CQNDBCXW"/>
      <point x="475" y="276" name="VGQPAPRN"/>
    </contour>
  </outline>
</glyph>
<glyph name="cedilla" format="2">
  <advance width="416"/>
  <unicode hex="00B8"/>
  <anchor x="0" y="0" name="bottom"/>
  <anchor x="208" y="0" name="center"/>
  <outline>
    <contour>
      <point x="134" y="-15" type="curve" name="RHCYKBZX"/>
      <point x="125" y="-7" name="AOVKBUAP"/>
      <point x="111" y="-1" name="HVQZRMFL"/>
      <point x="95" y="1" type="curve" name="SNKJKGFV"/>
      <point x="61" y="2" name="NHEOYBOP"/>
      <point x="23" y="1" name="LHRTYGRR"/>
      <point x="-16" y="-1" type="curve" name="WWABFIYR"/>
      <point x="20" y="-8" name="NMAPKTSF"/>
      <point x="39" y="-27" name="QTXQLUVY"/>
      <point x="39" y="-59" type="curve" name="YAQXYIZX"/>
      <point x="118" y="-49" name="JMHPEARS"/>
      <point x="143" y="-57" name="XGKHCTQS"/>
      <point x="141" y="-74" type="curve" smooth="yes" name="NVEZSSSX"/>
      <point x="138" y="-96" name="BXLZQQMZ"/>
      <point x="83" y="-98" name="PLQKPKAO"/>
      <point x="-30" y="-88" type="curve" name="IWFFFPNM"/>
      <point x="-34" y="-115" name="LKIXHIOU"/>
      <point x="-49" y="-151" name="WTKJSTMV"/>
      <point x="-72" y="-191" type="curve" name="TZLFKMBA"/>
      <point x="93" y="-224" name="XPZKEPLA"/>
      <point x="230" y="-176" name="URHNEWTT"/>
      <point x="246" y="-91" type="curve" smooth="yes" name="EWQTVTFV"/>
      <point x="255" y="-40" name="MRONLEWQ"/>
      <point x="202" y="-23" name="JHMGLSLN"/>
      <point x="134" y="-15" type="curve" name="PXYOIIPA"/>
      <point x="134" y="-15" name="SUSUYCIF"/>
      <point x="134" y="-15" name="JXDKAIYC"/>
    </contour>
  </outline>
</glyph>
<glyph name="onesuperior" format="2">
  <advance width="338"/>
  <unicode hex="00B9"/>
  <outline>
    <contour>
      <point x="89" y="447" type="curve" name="LGTCOXJT"/>
      <point x="42" y="455" name="CXKUJLQW"/>
      <point x="-22" y="453" name="LJWLOXLH"/>
      <point x="-100" y="440" type="curve" name="PXAALMQR"/>
      <point x="-76" y="431" name="DEAPKAFH"/>
      <point x="-59" y="416" name="MIGDYJGX"/>
      <point x="-50" y="396" type="curve" name="DUPPVZPZ"/>
      <point x="-19" y="402" name="VQDIGQZN"/>
      <point x="11" y="407" name="DKJTEAYE"/>
      <point x="38" y="410" type="curve" name="VCWERRRN"/>
      <point x="64" y="362" name="MLHYKVCK"/>
      <point x="40" y="276" name="EJPZGNAF"/>
      <point x="-36" y="156" type="curve" name="EUMYXOSR"/>
      <point x="12" y="158" name="IKIQTHIR"/>
      <point x="53" y="155" name="QTNTSGNO"/>
      <point x="89" y="149" type="curve" name="EONATQBD"/>
      <point x="200" y="325" name="EUEDITTD"/>
      <point x="200" y="427" name="YXTTGIIN"/>
    </contour>
  </outline>
</glyph>
<glyph name="questiondown" format="2">
  <advance width="511"/>
  <unicode hex="00BF"/>
  <outline>
    <contour>
      <point x="105" y="370" type="curve" name="YECRBNNP"/>
      <point x="50" y="371" name="SRCWJPJX"/>
      <point x="37" y="363" name="OXWXWZBG"/>
      <point x="70" y="346" type="curve" smooth="yes" name="QELHEGYC"/>
      <point x="101" y="328" name="RYMPLQIT"/>
      <point x="167" y="308" name="OCWHMHQN"/>
      <point x="222" y="306" type="curve" smooth="yes" name="SFMLCROW"/>
      <point x="279" y="305" name="AIWLGHOS"/>
      <point x="305" y="323" name="KLIMBOPR"/>
      <point x="274" y="341" type="curve" smooth="yes" name="KBNNMNFQ"/>
      <point x="242" y="359" name="TTPWSCLO"/>
      <point x="162" y="368" name="TFUKXRGR"/>
      <point x="105" y="370" type="curve" name="OIGXKBGA"/>
      <point x="105" y="370" name="LLKQSHHM"/>
      <point x="105" y="370" name="IWLOBWTO"/>
    </contour>
    <contour>
      <point x="161" y="245" type="curve" name="OBEWRWOV"/>
      <point x="54" y="222" name="CYOGBRHQ"/>
      <point x="-29" y="176" name="RBLPVHHU"/>
      <point x="-66" y="75" type="curve" smooth="yes" name="XKMFYQFO"/>
      <point x="-126" y="-88" name="IHKVSHAU"/>
      <point x="29" y="-158" name="HLPBQAQH"/>
      <point x="294" y="-112" type="curve" name="HDFEXMMK"/>
      <point x="336" y="-42" name="IMJXYUHZ"/>
      <point x="367" y="20" name="BEZTUAIW"/>
      <point x="387" y="74" type="curve" name="ZLFVBKQV"/>
      <point x="259" y="41" name="ZGKYNHXN"/>
      <point x="110" y="50" name="FWCGHAQY"/>
      <point x="130" y="108" type="curve" smooth="yes" name="TQNWFYQX"/>
      <point x="141" y="141" name="WKIYYHIQ"/>
      <point x="205" y="161" name="EVLYVQAW"/>
      <point x="321" y="160" type="curve" name="RKSHWXGD"/>
      <point x="329" y="204" name="WCKRYZNX"/>
      <point x="326" y="244" name="SEBMTUDG"/>
      <point x="314" y="274" type="curve" name="HNXHPWPC"/>
      <point x="265" y="278" name="CIQELMXV"/>
      <point x="210" y="279" name="OEMXFIZJ"/>
      <point x="154" y="278" type="curve" name="BLVNMSEE"/>
      <point x="158" y="268" name="AWVBJAUW"/>
      <point x="160" y="257" name="FBVPEVCY"/>
    </contour>
  </outline>
</glyph>
<glyph name="ae" format="2">
  <advance width="940"/>
  <unicode hex="00E6"/>
  <outline>
    <contour>
      <point x="258" y="-25" type="curve" name="EXBRUSUW"/>
      <point x="314" y="-23" name="BGMOIYMO"/>
      <point x="370" y="-24" name="RQEWHUYW"/>
      <point x="422" y="-25" type="curve" name="EBMKJNVB"/>
      <point x="431" y="-10" name="BOZEPIOX"/>
      <point x="440" y="5" name="ZLACZSPA"/>
      <point x="448" y="20" type="curve" name="VXFXOUQX"/>
      <point x="464" y="-18" name="CZOKEUHQ"/>
      <point x="496" y="-47" name="IJAECNZE"/>
      <point x="551" y="-52" type="curve" smooth="yes" name="TCZPSKQR"/>
      <point x="594" y="-55" name="YOLJOXMJ"/>
      <point x="649" y="-44" name="FNWNPHON"/>
      <point x="715" y="-22" type="curve" name="TISOQHRY"/>
      <point x="747" y="34" name="YIALQMIU"/>
      <point x="771" y="85" name="TLRKDEXM"/>
      <point x="784" y="127" type="curve" name="NFZMXVYV"/>
      <point x="655" y="98" name="MFNZZWNA"/>
      <point x="548" y="115" name="RNSFECUG"/>
      <point x="525" y="180" type="curve" name="GWAIGFMN"/>
      <point x="629" y="176" name="ECVVFFKO"/>
      <point x="727" y="166" name="EBUZVLTM"/>
      <point x="815" y="151" type="curve" name="SBKFMNLH"/>
      <point x="876" y="301" name="QPYIINQG"/>
      <point x="665" y="325" name="RBGRYLOK"/>
      <point x="528" y="336" type="curve" smooth="yes" name="DMLVDINQ"/>
      <point x="483" y="339" name="TLHSCASW"/>
      <point x="457" y="339" name="JNZFWKRM"/>
      <point x="443" y="333" type="curve" name="CRRMMSQF"/>
      <point x="437" y="336" name="ERDQLKDA"/>
      <point x="429" y="338" name="VRINKVPL"/>
      <point x="422" y="340" type="curve" name="SVCREBML"/>
      <point x="370" y="342" name="MXJKJTIB"/>
      <point x="314" y="342" name="HGEKEJCZ"/>
      <point x="258" y="341" type="curve" name="IXQTDRQY"/>
      <point x="265" y="339" name="NMIIICGK"/>
      <point x="271" y="337" name="ZFHTGDPH"/>
      <point x="279" y="335" type="curve" name="OUFFDSPY"/>
      <point x="226" y="340" name="QEGDEHRN"/>
      <point x="166" y="340" name="RABHWRRR"/>
      <point x="114" y="337" type="curve" smooth="yes" name="BMKWZTMY"/>
      <point x="-32" y="329" name="YZGQJVRP"/>
      <point x="-61" y="313" name="IMVDFUKF"/>
      <point x="-61" y="197" type="curve" smooth="yes" name="LREKFZXT"/>
      <point x="-61" y="82" name="JCSWHTVP"/>
      <point x="-32" y="-57" name="YLWESIKI"/>
      <point x="115" y="-48" type="curve" smooth="yes" name="MSHHBTME"/>
      <point x="167" y="-45" name="UJBMLQJZ"/>
      <point x="226" y="-23" name="RWBYIZVR"/>
      <point x="279" y="11" type="curve" name="SQWMDPVC"/>
      <point x="272" y="-1" name="RMDXEJZL"/>
      <point x="265" y="-13" name="BXAXENWV"/>
    </contour>
    <contour>
      <point x="225" y="117" type="curve" name="NBOCMSZI"/>
      <point x="155" y="114" name="NZHUTBQT"/>
      <point x="131" y="161" name="NAOUKMSV"/>
      <point x="131" y="216" type="curve" smooth="yes" name="JVWUYVXV"/>
      <point x="131" y="270" name="QWIACXPK"/>
      <point x="155" y="293" name="FWCWWDTI"/>
      <point x="225" y="296" type="curve" smooth="yes" name="GUZYVHIF"/>
      <point x="294" y="300" name="BLAVBGUU"/>
      <point x="360" y="281" name="YDMEMLPO"/>
      <point x="360" y="228" type="curve" smooth="yes" name="BPMGWQQB"/>
      <point x="360" y="174" name="RXWGWPYI"/>
      <point x="294" y="121" name="IBAUJFNN"/>
      <point x="225" y="117" type="curve" name="WCWCGRXJ"/>
      <point x="225" y="117" name="OSHEIJXP"/>
      <point x="225" y="117" name="IHRIKFBR"/>
    </contour>
    <contour>
      <point x="592" y="295" type="curve" name="YKNGWNKZ"/>
      <point x="629" y="292" name="WKFWWOUX"/>
      <point x="667" y="281" name="WVIRESGX"/>
      <point x="689" y="254" type="curve" name="MUOAOTAT"/>
      <point x="637" y="260" name="ECOESPPU"/>
      <point x="581" y="263" name="IOYAIZCX"/>
      <point x="524" y="265" type="curve" name="JTPQDUUJ"/>
      <point x="533" y="291" name="NZJFHDTO"/>
      <point x="556" y="297" name="XPZLVRFM"/>
      <point x="592" y="295" type="curve" name="XJPWGKCJ"/>
      <point x="592" y="295" name="HFADNTPP"/>
      <point x="592" y="295" name="WMKKNTAE"/>
    </contour>
  </outline>
</glyph>
<glyph name="eth" format="2">
  <advance width="575"/>
  <unicode hex="00F0"/>
  <outline>
    <contour>
      <point x="86" y="389" type="curve" name="JLUGOUDJ"/>
      <point x="134" y="400" name="JTWAJPRU"/>
      <point x="179" y="408" name="KISWLVLE"/>
      <point x="220" y="414" type="curve" name="KIVYPLCW"/>
      <point x="259" y="400" name="GIRGJDSF"/>
      <point x="286" y="384" name="WPGNTKDW"/>
      <point x="299" y="371" type="curve" name="ENESDWMY"/>
      <point x="190" y="405" name="CIHVKYUT"/>
      <point x="9" y="392" name="ZJBVPQKZ"/>
      <point x="-45" y="197" type="curve" smooth="yes" name="XTRMSKFI"/>
      <point x="-82" y="65" name="IHEYTEAI"/>
      <point x="-57" y="-65" name="PCKAWXYC"/>
      <point x="95" y="-64" type="curve" smooth="yes" name="BKEVFKPZ"/>
      <point x="251" y="-63" name="CRISBCKY"/>
      <point x="456" y="74" name="EZUMVLYB"/>
      <point x="485" y="236" type="curve" smooth="yes" name="XAOTTMMK"/>
      <point x="501" y="330" name="OGRGGABT"/>
      <point x="440" y="390" name="DKAKICIP"/>
      <point x="340" y="425" type="curve" name="VLMMDLAK"/>
      <point x="353" y="425" name="DRWYDLRV"/>
      <point x="367" y="425" name="MTCMJBRT"/>
      <point x="380" y="425" type="curve" name="TSBTLNVF"/>
      <point x="350" y="438" name="DRMOYDYZ"/>
      <point x="316" y="448" name="OFHONQXZ"/>
      <point x="277" y="455" type="curve" name="VURZXHIO"/>
      <point x="256" y="456" name="PSWGNILO"/>
      <point x="233" y="457" name="PGYCTFTE"/>
      <point x="209" y="456" type="curve" name="RKRHYFKE"/>
      <point x="189" y="458" name="TQCXCEJU"/>
      <point x="171" y="461" name="NVJKMWGV"/>
      <point x="152" y="463" type="curve" name="HYWXRNNA"/>
      <point x="89" y="465" name="CKFAIHJY"/>
      <point x="18" y="463" name="QXSHMRSN"/>
      <point x="-54" y="458" type="curve" name="KTJUPIIL"/>
      <point x="-12" y="456" name="MZKQHBCG"/>
      <point x="40" y="453" name="CJIPRAOQ"/>
      <point x="89" y="446" type="curve" name="CECCUDZI"/>
      <point x="61" y="442" name="UXKXNWIO"/>
      <point x="31" y="436" name="RDFIVVVJ"/>
      <point x="-1" y="430" type="curve" name="XKLZBWCO"/>
      <point x="33" y="420" name="KLQTSDZU"/>
      <point x="62" y="406" name="OWACPUWQ"/>
    </contour>
    <contour>
      <point x="202" y="109" type="curve" name="JFKIHIQR"/>
      <point x="145" y="109" name="NEOMMDJN"/>
      <point x="126" y="154" name="TKNWIMJU"/>
      <point x="142" y="211" type="curve" smooth="yes" name="YCUUFUHF"/>
      <point x="158" y="269" name="OKOMHLVV"/>
      <point x="198" y="301" name="HSMFEUNX"/>
      <point x="255" y="301" type="curve" smooth="yes" name="ZRJLNCML"/>
      <point x="311" y="301" name="CGQQSYFC"/>
      <point x="348" y="269" name="FMMRMGZG"/>
      <point x="333" y="214" type="curve" smooth="yes" name="BFUOHEGD"/>
      <point x="317" y="156" name="SCGIDIQE"/>
      <point x="258" y="109" name="XUXUAWBZ"/>
      <point x="202" y="109" type="curve" name="SCQLOOQE"/>
      <point x="202" y="109" name="FKWPUYUB"/>
      <point x="202" y="109" name="QQUWYFTU"/>
    </contour>
  </outline>
</glyph>
<glyph name="oslash" format="2">
  <advance width="600"/>
  <unicode hex="00F8"/>
  <outline>
    <contour>
      <point x="-84" y="-44" type="curve" name="JWJBRDJO"/>
      <point x="-54" y="-63" name="QUJJPIQV"/>
      <point x="-25" y="-85" name="ONRPADGN"/>
      <point x="0" y="-107" type="curve" name="JZUODWUD"/>
      <point x="35" y="-75" name="LVBXTXGK"/>
      <point x="68" y="-44" name="RAAXVSPO"/>
      <point x="98" y="-16" type="curve" name="AXHQLTIA"/>
      <point x="120" y="-22" name="NKSDHCMS"/>
      <point x="145" y="-26" name="JSMBFNLL"/>
      <point x="172" y="-26" type="curve" smooth="yes" name="HARMTQJN"/>
      <point x="328" y="-26" name="XAOJYJIY"/>
      <point x="507" y="101" name="ZXCVJKBL"/>
      <point x="507" y="212" type="curve" smooth="yes" name="JSWZWQCN"/>
      <point x="507" y="270" name="FZVPAHJR"/>
      <point x="458" y="307" name="OBEWFZTW"/>
      <point x="390" y="330" type="curve" name="BVOWGCAX"/>
      <point x="391" y="338" name="YKGNEMGU"/>
      <point x="387" y="344" name="OYNWXCAC"/>
      <point x="383" y="349" type="curve" name="KJOFMQQE"/>
      <point x="339" y="357" name="CUYTTUTA"/>
      <point x="291" y="365" name="TWAGEWHZ"/>
      <point x="242" y="370" type="curve" name="LLNNJBCW"/>
      <point x="249" y="368" name="JVCBDXOX"/>
      <point x="253" y="363" name="NNSWNNGL"/>
      <point x="255" y="357" type="curve" name="QIABEGSL"/>
      <point x="228" y="361" name="QPIOIQBE"/>
      <point x="199" y="361" name="YVZJDSFO"/>
      <point x="171" y="361" type="curve" smooth="yes" name="ULOVMINN"/>
      <point x="15" y="361" name="RQXUXTFT"/>
      <point x="-39" y="324" name="YGXXOBLO"/>
      <point x="-39" y="212" type="curve" smooth="yes" name="IMBVNAMA"/>
      <point x="-39" y="155" name="TRLCYFHZ"/>
      <point x="-26" y="92" name="KEWPQGZT"/>
      <point x="10" y="45" type="curve" name="AMQUMVMU"/>
      <point x="-19" y="18" name="HIACNGOM"/>
      <point x="-51" y="-14" name="MKXKYEYH"/>
    </contour>
    <contour>
      <point x="146" y="228" type="curve" name="QTEOEVKA"/>
      <point x="146" y="283" name="DPQHAVMB"/>
      <point x="175" y="310" name="AYGLFUOC"/>
      <point x="241" y="310" type="curve" smooth="yes" name="BOXMEVBU"/>
      <point x="244" y="310" name="MXVZGGST"/>
      <point x="245" y="310" name="LMGQJQNK"/>
      <point x="247" y="310" type="curve" name="WWTHHAOA"/>
      <point x="230" y="280" name="QTFGPJPR"/>
      <point x="199" y="238" name="MQXZYUZI"/>
      <point x="152" y="187" type="curve" name="CYHWFXGI"/>
      <point x="149" y="200" name="CQWWWDUW"/>
      <point x="147" y="214" name="WRAXDLRZ"/>
      <point x="146" y="228" type="curve" name="KYLEVNPV"/>
      <point x="146" y="228" name="VLOVCGNL"/>
      <point x="146" y="228" name="RYYAEASW"/>
    </contour>
    <contour>
      <point x="241" y="124" type="curve" name="JJWXBOIG"/>
      <point x="238" y="124" name="BBRLSHDB"/>
      <point x="237" y="124" name="NEIPKMAS"/>
      <point x="236" y="124" type="curve" name="PKAVZDLB"/>
      <point x="290" y="180" name="YGQZIRAR"/>
      <point x="332" y="229" name="GKEFCKMI"/>
      <point x="356" y="265" type="curve" name="EFGMBUGT"/>
      <point x="363" y="255" name="KSKJYVHO"/>
      <point x="366" y="242" name="VDPZRLET"/>
      <point x="366" y="228" type="curve" smooth="yes" name="BQMZWRQW"/>
      <point x="366" y="173" name="PKMTYGSZ"/>
      <point x="307" y="124" name="IHSJCXXC"/>
      <point x="241" y="124" type="curve" name="FQPTDANH"/>
      <point x="241" y="124" name="HOYSZISG"/>
      <point x="241" y="124" name="RFLNEIKC"/>
    </contour>
  </outline>
</glyph>
<glyph name="tilde" format="2">
  <advance width="565"/>
  <unicode hex="02DC"/>
  <anchor x="0" y="517" name="top"/>
  <anchor x="282" y="517" name="center"/>
  <outline>
    <contour>
      <point x="264" y="529" type="curve" name="OEFJLSXS"/>
      <point x="301" y="520" name="NZZVWVQJ"/>
      <point x="285" y="507" name="BCVHCJAT"/>
      <point x="262" y="508" type="curve" smooth="yes" name="QGGRJZUY"/>
      <point x="219" y="510" name="BOUMCPZZ"/>
      <point x="147" y="535" name="DYUJDRMT"/>
      <point x="60" y="531" type="curve" smooth="yes" name="IJCQWMEC"/>
      <point x="-30" y="526" name="FEYALSIY"/>
      <point x="22" y="554" name="YIBZJHNX"/>
      <point x="-90" y="371" type="curve" name="CNLBAZEL"/>
      <point x="-46" y="377" name="RBBCYHRG"/>
      <point x="-5" y="380" name="NNMTBXHM"/>
      <point x="35" y="383" type="curve" name="WOCKMSEL"/>
      <point x="75" y="447" name="CGRNWSWT"/>
      <point x="88" y="458" name="MYWKAFLQ"/>
      <point x="113" y="458" type="curve" smooth="yes" name="XQZKIWYL"/>
      <point x="162" y="460" name="OPXVXMTV"/>
      <point x="163" y="384" name="NOVTGRSR"/>
      <point x="236" y="380" type="curve" smooth="yes" name="JFXUMHWJ"/>
      <point x="314" y="375" name="WPICYJZI"/>
      <point x="467" y="493" name="YOIOMDNI"/>
      <point x="355" y="517" type="curve" name="IRITOFIU"/>
      <point x="327" y="523" name="ZLIXOMFL"/>
      <point x="296" y="526" name="LWVFYFBR"/>
    </contour>
  </outline>
</glyph>
<glyph name="emdash" format="2">
  <advance width="805"/>
  <unicode hex="2014"/>
  <outline>
    <contour>
      <point x="-87" y="132" type="curve" name="SCPUSVLY"/>
      <point x="181" y="163" name="JQODBZXQ"/>
      <point x="410" y="163" name="VFVDNBGF"/>
      <point x="588" y="132" type="curve" name="NNTHCNXY"/>
      <point x="629" y="197" name="SHQNAKNR"/>
      <point x="629" y="234" name="ZRETWZKS"/>
      <point x="588" y="241" type="curve" name="KTFSQGYL"/>
      <point x="410" y="273" name="TRFLRANM"/>
      <point x="181" y="273" name="SBAQHHBD"/>
      <point x="-87" y="241" type="curve" name="LMNEKSAP"/>
      <point x="-46" y="234" name="QQXWVYFH"/>
      <point x="-46" y="197" name="YGDVWIIE"/>
    </contour>
  </outline>
</glyph>
<glyph name="quoteleft" format="2">
  <advance width="297"/>
  <unicode hex="2018"/>
  <outline>
    <contour>
      <point x="101" y="448" type="curve" name="HLXPEQKQ"/>
      <point x="62" y="455" name="AVTNCTNG"/>
      <point x="17" y="457" name="JOQEWDWT"/>
      <point x="-34" y="455" type="curve" name="HAZXCUFR"/>
      <point x="15" y="441" name="MCDQXFIT"/>
      <point x="-14" y="371" name="ZLFVQKIT"/>
      <point x="-117" y="249" type="curve" name="XPYQPAEP"/>
      <point x="-50" y="257" name="HGWKVCBS"/>
      <point x="9" y="258" name="FEQJNJQO"/>
      <point x="59" y="254" type="curve" name="UDBFSWNQ"/>
      <point x="148" y="371" name="QQJYXYYF"/>
      <point x="162" y="437" name="DLAIADPA"/>
    </contour>
  </outline>
</glyph>
<glyph name="quoteright" format="2">
  <advance width="297"/>
  <unicode hex="2019"/>
  <outline>
    <contour>
      <point x="-110" y="249" type="curve" name="GTVVYLXK"/>
      <point x="-53" y="255" name="AAYDBHPQ"/>
      <point x="-2" y="257" name="WOKVDYNH"/>
      <point x="43" y="255" type="curve" name="NCUXGOBS"/>
      <point x="140" y="373" name="NRZNITHU"/>
      <point x="163" y="438" name="UXCUBMXX"/>
      <point x="108" y="448" type="curve" name="IQDERSKD"/>
      <point x="63" y="456" name="CKNCYLGX"/>
      <point x="8" y="458" name="SXCYVCGM"/>
      <point x="-54" y="453" type="curve" name="FERGOBOH"/>
      <point x="3" y="439" name="DUKTSGII"/>
      <point x="-17" y="369" name="JWVVXZPO"/>
    </contour>
  </outline>
</glyph>
<glyph name="quotedblleft" format="2">
  <advance width="518"/>
  <unicode hex="201C"/>
  <outline>
    <contour>
      <point x="117" y="460" type="curve" name="SKOSAHYW"/>
      <point x="69" y="460" name="KSSZCFRU"/>
      <point x="18" y="458" name="JGJUTUSH"/>
      <point x="-37" y="453" type="curve" name="OHBYPORB"/>
      <point x="11" y="438" name="UDZUGRCJ"/>
      <point x="-20" y="366" name="KHDIORDR"/>
      <point x="-123" y="245" type="curve" name="KVLEQFKK"/>
      <point x="-56" y="252" name="XMMWFIFX"/>
      <point x="8" y="257" name="PXHRMFYK"/>
      <point x="67" y="260" type="curve" name="MLXRPJAP"/>
      <point x="158" y="378" name="LUQLWRWV"/>
      <point x="175" y="446" name="NFSACYTW"/>
    </contour>
    <contour>
      <point x="316" y="444" type="curve" name="OZFBZTLS"/>
      <point x="278" y="451" name="NUEAFZUF"/>
      <point x="236" y="455" name="TBJTCWNJ"/>
      <point x="191" y="458" type="curve" name="DMLIPJSW"/>
      <point x="243" y="446" name="ZSGXWOSY"/>
      <point x="218" y="378" name="RVMXXDKI"/>
      <point x="120" y="260" type="curve" name="EZHARQNV"/>
      <point x="176" y="260" name="XGONZVBP"/>
      <point x="228" y="257" name="YFIVXQME"/>
      <point x="276" y="251" type="curve" name="CXHCZRBU"/>
      <point x="364" y="368" name="GJGSAIGD"/>
      <point x="378" y="434" name="UMHSQGKC"/>
    </contour>
  </outline>
</glyph>
<glyph name="dieresis.cap" format="2">
  <advance width="577"/>
  <anchor x="0" y="680.0" name="top"/>
  <anchor x="288" y="680.0" name="center"/>
  <outline>
    <contour>
      <point x="34" y="503" type="curve" name="XOMMDDTG"/>
      <point x="96" y="507" name="OWNYRXWN"/>
      <point x="184" y="569" name="MCIHYLWQ"/>
      <point x="184" y="608" type="curve" smooth="yes" name="MAJHOXHN"/>
      <point x="184" y="647" name="RGRMDOIQ"/>
      <point x="96" y="651" name="KNJWDTSD"/>
      <point x="34" y="646" type="curve" smooth="yes" name="PNISBREX"/>
      <point x="-30" y="642" name="AOQJUGOJ"/>
      <point x="-46" y="631" name="NJZVWWMY"/>
      <point x="-45" y="593" type="curve" smooth="yes" name="YCFMGHXY"/>
      <point x="-45" y="553" name="WQUGFLXL"/>
      <point x="-30" y="499" name="OQVYLBZQ"/>
      <point x="34" y="503" type="curve" name="KYVPCFAM"/>
      <point x="34" y="503" name="KIOYOSYT"/>
      <point x="34" y="503" name="PSBLAFAS"/>
    </contour>
    <contour>
      <point x="274" y="503" type="curve" name="ZNDZDZAJ"/>
      <point x="324" y="499" name="IGLBKCTA"/>
      <point x="402" y="553" name="IFEGXKGT"/>
      <point x="402" y="593" type="curve" smooth="yes" name="OTUQFAQM"/>
      <point x="402" y="631" name="BPUHTSDX"/>
      <point x="324" y="642" name="KSNYOTGQ"/>
      <point x="274" y="646" type="curve" smooth="yes" name="JGKPIKTN"/>
      <point x="222" y="651" name="YFVEZEPI"/>
      <point x="216" y="646" name="OWXHWDTT"/>
      <point x="217" y="608" type="curve" smooth="yes" name="PZBSYDFF"/>
      <point x="217" y="569" name="BAJQHECO"/>
      <point x="222" y="507" name="FNZVPIIL"/>
      <point x="274" y="503" type="curve" name="HLGENGHP"/>
      <point x="274" y="503" name="ZCWWKCIJ"/>
      <point x="274" y="503" name="HIJVSLNY"/>
    </contour>
  </outline>
</glyph>
<glyph name="tilde.cap" format="2">
  <advance width="565"/>
  <anchor x="0" y="680.0" name="top"/>
  <anchor x="282" y="680.0" name="center"/>
  <outline>
    <contour>
      <point x="264" y="644" type="curve" name="TSIJWQWE"/>
      <point x="301" y="636" name="OBJIGLNL"/>
      <point x="285" y="622" name="EZSWNTAU"/>
      <point x="262" y="623" type="curve" smooth="yes" name="GQSXZCYG"/>
      <point x="219" y="625" name="WIOOTESK"/>
      <point x="147" y="651" name="GEEUSHCE"/>
      <point x="60" y="646" type="curve" smooth="yes" name="QLWIHQKI"/>
      <point x="-30" y="641" name="NWGNDJOE"/>
      <point x="22" y="669" name="BHLCCWBM"/>
      <point x="-90" y="487" type="curve" name="KGCIAJBV"/>
      <point x="-46" y="492" name="GSUXUWUB"/>
      <point x="-5" y="496" name="XYTECLWF"/>
      <point x="35" y="499" type="curve" name="IIWNBDUX"/>
      <point x="75" y="562" name="AILXTPMM"/>
      <point x="88" y="573" name="TPMNCSJL"/>
      <point x="113" y="574" type="curve" smooth="yes" name="JMONTBWQ"/>
      <point x="162" y="576" name="GHWZVJFV"/>
      <point x="163" y="499" name="CYGWDRDP"/>
      <point x="236" y="495" type="curve" smooth="yes" name="JQMNNIFS"/>
      <point x="314" y="490" name="LGQZYNDB"/>
      <point x="467" y="608" name="BXHYKZKD"/>
      <point x="355" y="632" type="curve" name="NXSRDZJO"/>
      <point x="327" y="638" name="VMQNIPFY"/>
      <point x="296" y="641" name="CPCJAPIL"/>
    </contour>
  </outline>
</glyph>
